<svg width="64" height="64" viewBox="0 0 64 64" fill="none" xmlns="http://www.w3.org/2000/svg">
<g clip-path="url(#clip0_197_5570)">
<path d="M61.4 19.3333L60 20L58.6667 21.3333L56 22.6667H53.3333L52 24L50.6667 25.3333L48 26.6667V29.3333L49.3333 32V33.3333H45.3333L44 32H42.6667L41.3333 33.3333V34.6667L38.6667 36H34.6667L33.3333 37.3333H29.3333L28 38.6667H26.6667L25.3333 37.3333H22.6667L21.3333 36H20L18.6667 34.6667L17.3333 33.3333L16 32L14.6667 29.3333V24L16 22.6667L17.3333 25.3333H18.6667L21.3333 22.6667H24V24H28V20L29.3333 18.6667L30.6667 20L33.3333 21.3333L37.3333 22.6667H44H46.6667L48 21.3333H50.6667L54.6667 20L60 17.3333H60.4667C55.1333 7.06667 44.4 0 32 0C14.3333 0 0 14.3333 0 32C0 49.6667 14.3333 64 32 64C49.6667 64 64 49.6667 64 32C64 27.4667 63.0667 23.2 61.4 19.3333Z" fill="white"/>
<path d="M54.667 20.0002L50.667 21.3335H48.0003L46.667 22.6668H44.0003H37.3337L33.3337 21.3335L30.667 20.0002L29.3337 18.6668L28.0003 20.0002V24.0002H24.0003V22.6668H21.3337L18.667 25.3335H17.3337L16.0003 22.6668L14.667 24.0002V29.3335L16.0003 32.0002L17.3337 33.3335L18.667 34.6668L20.0003 36.0002H21.3337L22.667 37.3335H25.3337L26.667 38.6668H28.0003L29.3337 37.3335H33.3337L34.667 36.0002H38.667L41.3337 34.6668V33.3335L42.667 32.0002H44.0003L45.3337 33.3335H49.3337V32.0002L48.0003 29.3335V26.6668L50.667 25.3335L52.0003 24.0002L53.3337 22.6668H56.0003L58.667 21.3335L60.0003 20.0002L61.4003 19.3335C61.1337 18.6668 60.8003 18.0002 60.467 17.3335H60.0003L54.667 20.0002Z" fill="#CC9500"/>
<path d="M46.6663 37.3335L43.9997 38.6668V40.0002L42.6663 41.3335V38.6668L41.333 40.0002V42.6668L39.9997 44.0002V41.3335L38.6663 42.6668V44.0002L37.333 45.3335V42.6668L35.9997 44.0002V45.4002L34.6663 46.6668V44.0002L33.333 45.3335V48.0002H37.333V46.6668H39.9997V45.3335H42.6663L43.9997 44.0002H42.6663V42.6668H45.333L46.6663 41.3335H43.9997L46.6663 40.0002V37.3335Z" fill="#1E5B00"/>
<path d="M30.6663 48L29.333 49.3333V50.6667L30.6663 49.3333H33.333L34.6663 50.6667V49.3333L33.333 48H30.6663Z" fill="#1E5B00"/>
<path d="M30.6663 45.3335L29.333 44.0002V46.6668L27.9997 45.4002V44.0002L26.6663 42.6668V45.3335L25.333 44.0002V42.6668L23.9997 41.3335V44.0002L22.6663 42.6668V40.0002L21.333 38.6668V41.3335L19.9997 40.0002V38.6668L17.333 37.3335V40.0002L19.9997 41.3335H17.333L18.6663 42.6668H21.333V44.0002H19.9997L21.333 45.3335H23.9997V46.6668H26.6663V48.0002H30.6663V45.3335Z" fill="#1E5B00"/>
</g>
<defs>
<clipPath id="clip0_197_5570">
<rect width="64" height="64" fill="white"/>
</clipPath>
</defs>
</svg>
