<svg width="64" height="64" viewBox="0 0 64 64" fill="none" xmlns="http://www.w3.org/2000/svg">
<g clip-path="url(#clip0_811_1340)">
<path d="M59.7333 16H4.26667C1.6 20.7333 0 26.2 0 32C0 37.8 1.6 43.2667 4.26667 48H59.6667C62.4 43.2667 63.9333 37.8 63.9333 32C63.9333 26.2 62.4 20.7333 59.7333 16Z" fill="#FFD400"/>
<path d="M31.9999 0C20.1333 0 9.79993 6.46667 4.2666 16H59.6666C54.1999 6.46667 43.8666 0 31.9999 0Z" fill="#F0263C"/>
<path d="M31.9999 64C43.8666 64 54.1999 57.5333 59.7333 48H4.2666C9.79993 57.5333 20.1333 64 31.9999 64Z" fill="#F0263C"/>
<path d="M4 35.9999H6.66667V32.4666L4 33.3332V35.9999Z" fill="white"/>
<path d="M6.66667 24H4V28H6.66667V24Z" fill="white"/>
<path d="M6.66667 29.3333H4V31.9999L6.66667 31.1333V29.3333Z" fill="white"/>
<path d="M20 35.9999H22.6667V33.3332L20 32.4666V35.9999Z" fill="white"/>
<path d="M20 31.1333L22.6667 31.9999V29.3333H20V31.1333Z" fill="white"/>
<path d="M22.6667 24H20V28H22.6667V24Z" fill="white"/>
<path d="M6.66667 36H4V37.3333H6.66667V36Z" fill="#231D9A"/>
<path d="M22.6667 36H20V37.3333H22.6667V36Z" fill="#231D9A"/>
<path d="M17.3333 23.9999L18.6667 21.3333H8L9.33333 23.9999H17.3333Z" fill="#F0263C"/>
<path d="M18.667 28V29.3333H20.0003H22.667V28H20.0003H18.667Z" fill="#F0263C"/>
<path d="M18.667 30.6667V32.0001L20.0003 32.4667L22.667 33.3334V32.0001L20.0003 31.1334L18.667 30.6667Z" fill="#F0263C"/>
<path d="M13.3333 33.3333C12.2 33.3333 11.3333 32.4666 11.3333 31.3333C11.3333 30.1999 12.2 29.3333 13.3333 29.3333V25.3333H8V27.9999H6.66667H4V29.3333H6.66667H8V30.6666L6.66667 31.1333L4 31.9999V33.3333L6.66667 32.4666L8 31.9999V33.3333C8 35.8666 9.73333 37.9333 12.0667 38.5333L13.3333 35.9999L14.6 38.5333C16.9333 37.9333 18.6667 35.8666 18.6667 33.3333V31.9999H15.2C14.9333 32.7999 14.2 33.3333 13.3333 33.3333Z" fill="#F0263C"/>
<path d="M18.6663 29.3333V27.9999V25.3333H13.333V29.3333C14.4663 29.3333 15.333 30.1999 15.333 31.3333C15.333 31.5999 15.2663 31.7999 15.1997 31.9999H18.6663V30.6666V29.3333Z" fill="white"/>
<path d="M12.0664 38.5333C12.4664 38.6667 12.9331 38.6667 13.3331 38.6667C13.7331 38.6667 14.1997 38.6 14.5997 38.5333L13.3331 36L12.0664 38.5333Z" fill="white"/>
<path d="M11.333 31.3333C11.333 32.4666 12.1997 33.3333 13.333 33.3333C14.1997 33.3333 14.933 32.7999 15.1997 31.9999C15.2663 31.7999 15.333 31.5999 15.333 31.3333C15.333 30.1999 14.4663 29.3333 13.333 29.3333C12.1997 29.3333 11.333 30.1999 11.333 31.3333Z" fill="#231D9A"/>
</g>
<defs>
<clipPath id="clip0_811_1340">
<rect width="64" height="64" fill="white"/>
</clipPath>
</defs>
</svg>
