<svg width="64" height="64" viewBox="0 0 64 64" fill="none" xmlns="http://www.w3.org/2000/svg">
<g clip-path="url(#clip0_197_5446)">
<path d="M21.3333 62.2003V1.80029C8.93333 6.20029 0 18.067 0 32.0003C0 45.9336 8.93333 57.8003 21.3333 62.2003Z" fill="#231D9A"/>
<path d="M42.6663 1.8C39.333 0.666667 35.733 0 31.9997 0C28.2663 0 24.6663 0.666667 21.333 1.8V62.1333C24.6663 63.3333 28.2663 64 31.9997 64C35.733 64 39.333 63.3333 42.6663 62.2V1.8Z" fill="white"/>
<path d="M42.667 1.80029V62.1336C55.067 57.8003 64.0003 45.9336 64.0003 32.0003C64.0003 18.067 55.067 6.20029 42.667 1.80029Z" fill="#F0263C"/>
</g>
<defs>
<clipPath id="clip0_197_5446">
<rect width="64" height="64" fill="white"/>
</clipPath>
</defs>
</svg>
